<?xml version="1.0" encoding="UTF-8" standalone="no"?>
<svg
   xmlns:dc="http://purl.org/dc/elements/1.1/"
   xmlns:cc="http://creativecommons.org/ns#"
   xmlns:rdf="http://www.w3.org/1999/02/22-rdf-syntax-ns#"
   xmlns:svg="http://www.w3.org/2000/svg"
   xmlns="http://www.w3.org/2000/svg"
   xmlns:sodipodi="http://sodipodi.sourceforge.net/DTD/sodipodi-0.dtd"
   xmlns:inkscape="http://www.inkscape.org/namespaces/inkscape"
   width="16"
   height="16"
   version="1.1"
   viewBox="0 0 16 16"
   id="svg10"
   sodipodi:docname="icon_sdf_container.svg"
   inkscape:version="0.92.3 (2405546, 2018-03-11)">
  <metadata
     id="metadata16">
    <rdf:RDF>
      <cc:Work
         rdf:about="">
        <dc:format>image/svg+xml</dc:format>
        <dc:type
           rdf:resource="http://purl.org/dc/dcmitype/StillImage" />
        <dc:title></dc:title>
      </cc:Work>
    </rdf:RDF>
  </metadata>
  <defs
     id="defs14" />
  <sodipodi:namedview
     pagecolor="#ffffff"
     bordercolor="#666666"
     borderopacity="1"
     objecttolerance="10"
     gridtolerance="10"
     guidetolerance="10"
     inkscape:pageopacity="0"
     inkscape:pageshadow="2"
     inkscape:window-width="1448"
     inkscape:window-height="864"
     id="namedview12"
     showgrid="false"
     inkscape:zoom="20.85965"
     inkscape:cx="4.4389537"
     inkscape:cy="10.019745"
     inkscape:window-x="149"
     inkscape:window-y="93"
     inkscape:window-maximized="0"
     inkscape:current-layer="svg10" />
  <g
     transform="translate(0 -1036.4)"
     id="g8">
    <path
       transform="translate(0 1036.4)"
       d="m12 9c-0.55401 0-1 0.44599-1 1v1h2v2h1c0.55401 0 1-0.44599 1-1v-2c0-0.55401-0.44599-1-1-1h-2zm1 4h-2v-2h-1c-0.55401 0-1 0.44599-1 1v2c0 0.55401 0.44599 1 1 1h2c0.55401 0 1-0.44599 1-1v-1z"
       fill="#84c2ff"
       id="path2"
       style="fill:#ff84ff;fill-opacity:1" />
    <g
       fill="#fc9c9c"
       id="g6">
      <path
         transform="translate(0 1036.4)"
         d="m3 1c-1.1046 0-2 0.89543-2 2h2zm2 0v2h2v-2zm4 0v2h2v-2zm4 0v2h2c0-1.1046-0.89543-2-2-2zm-12 4v2h2v-2zm12 0v2h2v-2zm-12 4v2h2v-2zm0 4c0 1.1046 0.89543 2 2 2v-2zm4 0v2h2v-2z"
         fill="#fc9c9c"
         id="path4" />
    </g>
  </g>
</svg>
