<?xml version="1.0" encoding="UTF-8" standalone="no"?>
<svg
   xmlns:dc="http://purl.org/dc/elements/1.1/"
   xmlns:cc="http://creativecommons.org/ns#"
   xmlns:rdf="http://www.w3.org/1999/02/22-rdf-syntax-ns#"
   xmlns:svg="http://www.w3.org/2000/svg"
   xmlns="http://www.w3.org/2000/svg"
   xmlns:sodipodi="http://sodipodi.sourceforge.net/DTD/sodipodi-0.dtd"
   xmlns:inkscape="http://www.inkscape.org/namespaces/inkscape"
   width="16"
   height="16"
   version="1.1"
   viewBox="0 0 16 16"
   id="svg8"
   sodipodi:docname="icon_sdf_box.svg"
   inkscape:version="0.92.3 (2405546, 2018-03-11)">
  <metadata
     id="metadata14">
    <rdf:RDF>
      <cc:Work
         rdf:about="">
        <dc:format>image/svg+xml</dc:format>
        <dc:type
           rdf:resource="http://purl.org/dc/dcmitype/StillImage" />
      </cc:Work>
    </rdf:RDF>
  </metadata>
  <defs
     id="defs12" />
  <sodipodi:namedview
     pagecolor="#ffffff"
     bordercolor="#666666"
     borderopacity="1"
     objecttolerance="10"
     gridtolerance="10"
     guidetolerance="10"
     inkscape:pageopacity="0"
     inkscape:pageshadow="2"
     inkscape:window-width="1492"
     inkscape:window-height="857"
     id="namedview10"
     showgrid="true"
     inkscape:zoom="29.5"
     inkscape:cx="7.126935"
     inkscape:cy="7.4942547"
     inkscape:window-x="163"
     inkscape:window-y="79"
     inkscape:window-maximized="0"
     inkscape:current-layer="svg8">
    <inkscape:grid
       type="xygrid"
       id="grid4524" />
  </sodipodi:namedview>
  <g
     transform="translate(0 -1036.4)"
     id="g6">
    <path
       transform="translate(0 1036.4)"
       d="m12 9c-0.55401 0-1 0.44599-1 1v1h2v2h1c0.55401 0 1-0.44599 1-1v-2c0-0.55401-0.44599-1-1-1h-2zm1 4h-2v-2h-1c-0.55401 0-1 0.44599-1 1v2c0 0.55401 0.44599 1 1 1h2c0.55401 0 1-0.44599 1-1v-1z"
       fill="#84c2ff"
       id="path2"
       style="fill:#ff84ff;fill-opacity:1" />
    <path
       transform="translate(0 1036.4)"
       d="m8 0.94531-7 3.5v7.2227l7 3.5 0.29492-0.14844c-0.18282-0.30101-0.29492-0.64737-0.29492-1.0195v-2c0-0.72651 0.40824-1.3664 1-1.7168v-1.6699l4-2v1.3867h1c0.36419 0 0.70336 0.10754 1 0.2832v-3.8379zm0 2.1152 3.9395 1.9707-3.9395 1.9688-3.9395-1.9688zm-5 3.5527 4 2v3.9414l-4-2.002z"
       fill="#fc9c9c"
       stroke-width="1.0667"
       id="path4" />
  </g>
</svg>
